<svg width="27" height="38" viewBox="0 0 27 38" fill="none" xmlns="http://www.w3.org/2000/svg">
<path d="M13.125 0C5.86875 0 0 5.86875 0 13.125C0 16.3875 0.9375 19.4438 2.64375 22.2C4.425 25.0875 6.76875 27.5625 8.56875 30.45C9.45 31.8562 10.0875 33.1687 10.7625 34.6875C11.25 35.7188 11.6437 37.5 13.125 37.5C14.6063 37.5 15 35.7188 15.4688 34.6875C16.1625 33.1687 16.7813 31.8562 17.6625 30.45C19.4625 27.5812 21.8062 25.1063 23.5875 22.2C25.3125 19.4438 26.25 16.3875 26.25 13.125C26.25 5.86875 20.3812 0 13.125 0ZM13.125 18.2812C10.5375 18.2812 8.4375 16.1812 8.4375 13.5938C8.4375 11.0063 10.5375 8.90625 13.125 8.90625C15.7125 8.90625 17.8125 11.0063 17.8125 13.5938C17.8125 16.1812 15.7125 18.2812 13.125 18.2812Z" fill="#022B9B"/>
</svg>
