<svg width="35" height="35" viewBox="0 0 35 35" fill="none" xmlns="http://www.w3.org/2000/svg">
<g clip-path="url(#clip0_431_227)">
<path d="M29.1665 8.74996H23.3332V5.83329C23.3332 4.22913 22.0207 2.91663 20.4165 2.91663H14.5832C12.979 2.91663 11.6665 4.22913 11.6665 5.83329V8.74996H5.83317C4.229 8.74996 2.9165 10.0625 2.9165 11.6666V29.1666C2.9165 30.7708 4.229 32.0833 5.83317 32.0833H29.1665C30.7707 32.0833 32.0832 30.7708 32.0832 29.1666V11.6666C32.0832 10.0625 30.7707 8.74996 29.1665 8.74996ZM14.5832 5.83329H20.4165V8.74996H14.5832V5.83329ZM23.3332 21.875H18.9582V26.25H16.0415V21.875H11.6665V18.9583H16.0415V14.5833H18.9582V18.9583H23.3332V21.875Z" fill="#022B9B"/>
</g>
<defs>
<clipPath id="clip0_431_227">
<rect width="35" height="35" fill="white"/>
</clipPath>
</defs>
</svg>
